<?xml version="1.0" standalone="no"?>
<!DOCTYPE svg PUBLIC "-//W3C//DTD SVG 20010904//EN"
 "http://www.w3.org/TR/2001/REC-SVG-20010904/DTD/svg10.dtd">
<svg version="1.0" xmlns="http://www.w3.org/2000/svg"
 width="1135.000000pt" height="399.000000pt" viewBox="0 0 1135.000000 399.000000"
 preserveAspectRatio="xMidYMid meet">

<g transform="translate(0.000000,399.000000) scale(0.100000,-0.100000)"
fill="#000000" stroke="none">
<path d="M1097 3230 c-175 -30 -322 -183 -347 -362 -12 -82 -12 -1614 0 -1696
23 -162 131 -291 295 -351 34 -13 169 -16 870 -18 552 -3 853 0 900 7 147 22
260 105 323 238 l37 77 3 879 c3 978 6 923 -65 1035 -54 85 -100 121 -223 175
-44 20 -68 21 -895 22 -467 1 -872 -2 -898 -6z m1760 -179 c64 -28 114 -81
139 -147 18 -47 19 -89 19 -889 l0 -840 -23 -50 c-30 -66 -66 -102 -127 -131
l-50 -24 -845 0 c-570 0 -858 4 -884 11 -46 13 -120 78 -149 134 l-22 40 0
865 0 865 29 53 c42 75 102 118 185 132 25 4 413 7 861 7 l815 -2 52 -24z"/>
<path d="M1853 2819 c-256 -22 -473 -117 -695 -303 -73 -61 -82 -121 -26 -160
38 -27 64 -19 131 38 100 84 156 121 257 170 377 182 810 120 1133 -163 68
-59 94 -68 135 -47 50 26 57 77 16 126 -50 58 -193 161 -301 215 -205 102
-421 143 -650 124z"/>
<path d="M1835 2291 c-159 -26 -331 -111 -438 -217 -33 -33 -38 -42 -35 -78 2
-33 9 -43 36 -59 42 -25 65 -18 130 37 109 93 247 149 398 163 143 12 321 -46
448 -146 104 -81 118 -85 165 -45 62 52 30 114 -103 204 -97 65 -140 86 -243
116 -96 28 -265 40 -358 25z"/>
<path d="M1883 1756 c-64 -21 -109 -53 -147 -104 -137 -188 -6 -442 228 -442
113 0 203 56 253 158 67 137 12 296 -129 368 -59 30 -148 39 -205 20z m155
-174 c81 -76 28 -202 -84 -202 -29 0 -44 7 -70 36 -28 29 -34 43 -34 81 0 38
5 50 34 79 29 29 41 34 79 34 35 0 51 -6 75 -28z"/>
<path d="M8597 2593 c-106 -39 -153 -106 -164 -228 l-6 -75 -51 0 c-83 0 -131
-51 -105 -112 15 -37 56 -58 114 -58 l45 0 0 -269 c0 -273 4 -312 38 -337 29
-23 90 -17 117 11 l25 24 0 286 0 285 75 0 c47 0 87 6 104 15 34 17 54 65 41
99 -16 43 -47 56 -137 56 l-83 0 0 40 c0 100 44 135 148 117 47 -8 58 -7 81
10 38 29 41 90 6 123 -23 22 -37 25 -113 28 -63 1 -100 -3 -135 -15z"/>
<path d="M4094 2539 c-88 -8 -161 -38 -216 -88 -66 -59 -90 -109 -96 -197 -11
-171 79 -274 278 -318 213 -48 259 -67 285 -117 33 -63 9 -121 -68 -162 -34
-17 -59 -22 -127 -22 -96 0 -146 16 -221 71 -69 50 -126 45 -158 -15 -47 -87
89 -196 282 -228 159 -25 316 16 407 107 62 62 80 109 80 210 0 100 -18 149
-74 198 -65 57 -112 75 -323 123 -51 11 -107 30 -125 43 -83 56 -76 155 15
203 22 12 57 17 112 18 86 0 145 -17 220 -64 54 -34 101 -33 131 3 33 38 31
78 -8 121 -73 83 -235 130 -394 114z"/>
<path d="M7805 2425 c-21 -21 -25 -33 -25 -88 l0 -65 -56 -4 c-70 -6 -99 -31
-99 -88 0 -55 22 -74 93 -80 l57 -5 5 -255 c6 -301 8 -309 101 -348 137 -57
293 7 258 106 -13 37 -34 45 -94 36 -36 -5 -50 -3 -65 11 -19 17 -20 32 -20
237 l0 218 73 0 c64 0 76 3 95 23 34 36 30 89 -9 121 -26 22 -40 26 -95 26
l-64 0 0 55 c0 60 -19 109 -45 119 -37 14 -86 6 -110 -19z"/>
<path d="M9210 2311 c-110 -24 -211 -109 -263 -219 -31 -65 -32 -72 -32 -197
0 -127 1 -132 32 -196 57 -115 160 -188 295 -210 214 -36 458 102 355 199 -32
30 -71 27 -141 -8 -48 -25 -71 -30 -128 -30 -79 0 -119 14 -172 60 -35 31 -66
86 -66 116 0 12 46 14 263 14 285 0 297 2 318 57 12 33 -12 145 -46 213 -58
115 -185 199 -309 205 -39 2 -87 0 -106 -4z m194 -195 c41 -31 76 -81 76 -108
0 -17 -16 -18 -195 -18 -221 0 -219 -1 -168 78 40 61 90 84 179 80 60 -3 77
-8 108 -32z"/>
<path d="M10083 2311 c-62 -16 -141 -62 -181 -105 -196 -213 -144 -570 100
-681 136 -62 311 -54 430 21 69 43 85 90 47 138 -28 35 -72 34 -144 -4 -48
-25 -68 -30 -129 -30 -123 1 -207 59 -240 168 l-7 22 271 0 271 0 26 26 c24
24 25 31 21 93 -14 187 -177 349 -361 357 -40 2 -86 -1 -104 -5z m201 -194
c42 -32 62 -60 71 -99 l7 -28 -197 0 -197 0 6 31 c17 85 91 131 202 127 60 -3
77 -8 108 -31z"/>
<path d="M5055 2286 c-55 -17 -80 -32 -125 -72 l-38 -35 -12 36 c-22 66 -94
87 -147 41 l-28 -24 0 -357 0 -357 28 -24 c30 -26 75 -31 109 -13 41 22 48 65
48 300 0 250 5 272 70 315 76 51 175 38 224 -29 20 -27 21 -46 26 -289 l5
-260 28 -24 c30 -25 75 -31 107 -14 41 22 45 46 50 300 5 237 6 246 28 278 66
92 214 93 267 2 18 -32 20 -57 25 -288 l5 -254 28 -24 c39 -33 86 -32 121 3
l28 27 -4 286 c-4 268 -5 288 -26 342 -40 99 -111 143 -233 142 -85 0 -161
-36 -223 -105 l-45 -50 -21 41 c-48 93 -182 142 -295 106z"/>
<path d="M6352 2289 c-247 -48 -378 -374 -251 -628 32 -65 104 -138 166 -170
63 -32 157 -43 224 -27 55 12 141 55 154 76 10 17 25 11 25 -9 0 -28 47 -61
87 -61 23 0 42 8 58 25 l25 24 0 365 c0 360 0 366 -21 385 -49 45 -127 30
-147 -29 l-11 -30 -48 30 c-50 31 -149 61 -193 59 -14 -1 -44 -5 -68 -10z
m196 -188 c71 -36 122 -132 122 -229 0 -114 -75 -221 -169 -241 -100 -21 -185
17 -238 107 -25 42 -28 57 -28 137 0 80 3 95 28 137 63 108 178 144 285 89z"/>
<path d="M7385 2285 c-27 -8 -53 -14 -56 -15 -3 0 -27 -18 -52 -41 l-46 -40
-15 35 c-26 64 -97 77 -147 27 l-29 -29 0 -347 0 -347 29 -29 c31 -31 75 -38
113 -18 41 22 48 65 48 296 0 247 7 277 74 328 35 27 38 27 130 20 93 -7 93
-7 115 21 41 52 20 120 -45 144 -33 13 -58 12 -119 -5z"/>
</g>
</svg>
